<svg width="73" height="71" viewBox="0 0 73 71" fill="none" xmlns="http://www.w3.org/2000/svg">
<g id="Icon">
<path id="Rectangle 4" d="M61.9086 0.5H10.7313C5.07842 0.5 0.49585 4.97715 0.49585 10.5V60.5C0.49585 66.0229 5.07842 70.5 10.7313 70.5H61.9086C67.5615 70.5 72.144 66.0229 72.144 60.5V10.5C72.144 4.97715 67.5615 0.5 61.9086 0.5Z" fill="#F3FCF7"/>
<path id="Icon awesome-truck" d="M52.1214 40.375H51.2903V34.886C51.289 34.2401 51.0254 33.6212 50.5575 33.165L45.364 28.091C44.8971 27.6338 44.2635 27.3763 43.6025 27.375H41.3097V24.938C41.3097 24.2916 41.047 23.6716 40.5792 23.2144C40.1114 22.7572 39.477 22.5003 38.8153 22.5H22.1827C21.5209 22.5 20.8862 22.7569 20.4182 23.2141C19.9502 23.6713 19.6873 24.2914 19.6873 24.938V41.188C19.6873 41.8346 19.9502 42.4547 20.4182 42.9119C20.8862 43.3691 21.5209 43.626 22.1827 43.626H23.0138C23.0138 44.9189 23.5395 46.1589 24.4753 47.0731C25.4111 47.9874 26.6803 48.501 28.0036 48.501C29.327 48.501 30.5962 47.9874 31.5319 47.0731C32.4677 46.1589 32.9934 44.9189 32.9934 43.626H39.6465C39.6465 44.9189 40.1722 46.1589 41.1079 47.0731C42.0437 47.9874 43.3129 48.501 44.6362 48.501C45.9596 48.501 47.2288 47.9874 48.1646 47.0731C49.1003 46.1589 49.626 44.9189 49.626 43.626H52.1214C52.3418 43.6255 52.553 43.5398 52.7089 43.3876C52.8648 43.2355 52.9528 43.0293 52.9536 42.814V41.188C52.953 40.9725 52.8652 40.7661 52.7093 40.6137C52.5533 40.4614 52.342 40.3755 52.1214 40.375ZM28.0036 46.063C27.51 46.063 27.0275 45.92 26.6171 45.6521C26.2068 45.3841 25.8869 45.0033 25.6981 44.5578C25.5092 44.1122 25.4599 43.622 25.5562 43.149C25.6526 42.676 25.8904 42.2416 26.2395 41.9007C26.5886 41.5598 27.0333 41.3277 27.5174 41.2337C28.0016 41.1398 28.5033 41.1882 28.9593 41.3729C29.4152 41.5575 29.8049 41.8702 30.079 42.2712C30.3531 42.6723 30.4992 43.1438 30.499 43.626C30.4988 44.2724 30.2357 44.8923 29.7678 45.3493C29.2998 45.8063 28.6653 46.063 28.0036 46.063ZM44.6362 46.063C44.1427 46.063 43.6602 45.92 43.2498 45.6521C42.8394 45.3841 42.5195 45.0033 42.3307 44.5578C42.1419 44.1122 42.0925 43.622 42.1889 43.149C42.2852 42.676 42.523 42.2416 42.8721 41.9007C43.2212 41.5598 43.6659 41.3277 44.15 41.2337C44.6342 41.1398 45.1359 41.1882 45.5919 41.3729C46.0479 41.5575 46.4375 41.8702 46.7116 42.2712C46.9857 42.6723 47.1319 43.1438 47.1316 43.626C47.1314 44.2724 46.8684 44.8923 46.4004 45.3493C45.9325 45.8063 45.2979 46.063 44.6362 46.063ZM48.7949 35.5H41.3097V29.813H43.6014L48.7939 34.886L48.7949 35.5Z" fill="#06C167"/>
</g>
</svg>
