<svg width="72" height="71" viewBox="0 0 72 71" fill="none" xmlns="http://www.w3.org/2000/svg">
<g id="Icon">
<path id="Rectangle 4" d="M61.4667 0.5H10.2894C4.63652 0.5 0.0539551 4.97715 0.0539551 10.5V60.5C0.0539551 66.0229 4.63652 70.5 10.2894 70.5H61.4667C67.1196 70.5 71.7021 66.0229 71.7021 60.5V10.5C71.7021 4.97715 67.1196 0.5 61.4667 0.5Z" fill="#F3FCF7"/>
<path id="Icon awesome-wallet" d="M46.5435 29.375H26.7307C26.5152 29.3676 26.311 29.2788 26.1612 29.1272C26.0114 28.9756 25.9277 28.7732 25.9277 28.5625C25.9277 28.3518 26.0114 28.1493 26.1612 27.9978C26.311 27.8462 26.5152 27.7574 26.7307 27.75H46.6898C46.7991 27.7501 46.9072 27.7292 47.0082 27.6885C47.1092 27.6477 47.2009 27.5879 47.2782 27.5125C47.3555 27.4371 47.4168 27.3475 47.4586 27.2489C47.5004 27.1504 47.522 27.0447 47.522 26.938C47.522 26.6179 47.4575 26.301 47.3321 26.0054C47.2067 25.7097 47.023 25.4411 46.7914 25.2148C46.5598 24.9885 46.2848 24.809 45.9821 24.6865C45.6795 24.564 45.3552 24.501 45.0276 24.501H25.8985C25.0165 24.501 24.1705 24.8432 23.5467 25.4525C22.9229 26.0618 22.5723 26.8882 22.572 27.75V44C22.572 44.8619 22.9225 45.6886 23.5463 46.2981C24.1702 46.9076 25.0163 47.25 25.8985 47.25H46.5435C47.2241 47.2677 47.8842 47.0212 48.3791 46.5645C48.8741 46.1077 49.1636 45.4779 49.1842 44.813V31.813C49.1639 31.1479 48.8745 30.5178 48.3795 30.0608C47.8845 29.6038 47.2243 29.3572 46.5435 29.375ZM44.1893 39.938C43.8603 39.938 43.5388 39.8427 43.2652 39.6641C42.9917 39.4856 42.7785 39.2318 42.6527 38.9348C42.5268 38.6379 42.4938 38.3112 42.558 37.996C42.6222 37.6807 42.7806 37.3912 43.0132 37.1639C43.2458 36.9367 43.5422 36.7819 43.8648 36.7192C44.1875 36.6565 44.5219 36.6887 44.8258 36.8117C45.1297 36.9347 45.3895 37.1429 45.5723 37.4102C45.755 37.6774 45.8526 37.9916 45.8526 38.313C45.8526 38.7431 45.678 39.1557 45.3672 39.4603C45.0564 39.7649 44.6347 39.9367 44.1944 39.938H44.1893Z" fill="#06C167"/>
</g>
</svg>
