<svg width="73" height="71" viewBox="0 0 73 71" fill="none" xmlns="http://www.w3.org/2000/svg">
<g id="Icon">
<path id="Rectangle 4" d="M62.0485 0.5H10.8712C5.21831 0.5 0.635742 4.97715 0.635742 10.5V60.5C0.635742 66.0229 5.21831 70.5 10.8712 70.5H62.0485C67.7014 70.5 72.2839 66.0229 72.2839 60.5V10.5C72.2839 4.97715 67.7014 0.5 62.0485 0.5Z" fill="#F3FCF7"/>
<path id="Icon awesome-percentage" d="M31.9031 31.05C32.3678 30.5952 32.684 30.0161 32.8119 29.3858C32.9399 28.7556 32.8737 28.1024 32.6217 27.5088C32.3698 26.9153 31.9434 26.408 31.3965 26.0511C30.8496 25.6943 30.2066 25.5038 29.5489 25.5038C28.8912 25.5038 28.2483 25.6943 27.7014 26.0511C27.1545 26.408 26.7281 26.9153 26.4762 27.5088C26.2242 28.1024 26.158 28.7556 26.2859 29.3858C26.4138 30.0161 26.7301 30.5952 27.1948 31.05C27.5037 31.3523 27.8707 31.5922 28.2747 31.7559C28.6786 31.9195 29.1116 32.0038 29.5489 32.0038C29.9862 32.0038 30.4193 31.9195 30.8232 31.7559C31.2272 31.5922 31.5941 31.3523 31.9031 31.05ZM45.2092 39.45C44.7437 38.996 44.151 38.687 43.5059 38.562C42.8607 38.4371 42.1922 38.5017 41.5846 38.7479C40.9771 38.994 40.4579 39.4106 40.0926 39.9449C39.7274 40.4793 39.5324 41.1074 39.5324 41.75C39.5324 42.3925 39.7274 43.0207 40.0926 43.555C40.4579 44.0894 40.9771 44.5059 41.5846 44.7521C42.1922 44.9982 42.8607 45.0629 43.5059 44.9379C44.151 44.813 44.7437 44.504 45.2092 44.05C45.5187 43.7481 45.7642 43.3896 45.9317 42.9949C46.0992 42.6003 46.1854 42.1772 46.1854 41.75C46.1854 41.3227 46.0992 40.8997 45.9317 40.505C45.7642 40.1104 45.5187 39.7518 45.2092 39.45ZM45.1068 27.698L43.9318 26.55C43.7774 26.3987 43.5939 26.2786 43.3919 26.1967C43.19 26.1148 42.9734 26.0727 42.7547 26.0727C42.536 26.0727 42.3195 26.1148 42.1175 26.1967C41.9155 26.2786 41.7321 26.3987 41.5776 26.55L27.3002 40.503C27.1453 40.6538 27.0225 40.8331 26.9386 41.0304C26.8548 41.2278 26.8116 41.4393 26.8116 41.653C26.8116 41.8666 26.8548 42.0782 26.9386 42.2755C27.0225 42.4729 27.1453 42.6521 27.3002 42.803L28.4763 43.95C28.6307 44.1013 28.8141 44.2213 29.0161 44.3032C29.2181 44.3851 29.4346 44.4273 29.6533 44.4273C29.872 44.4273 30.0886 44.3851 30.2906 44.3032C30.4925 44.2213 30.676 44.1013 30.8304 43.95L45.1079 29.997C45.2627 29.8461 45.3856 29.6669 45.4694 29.4695C45.5533 29.2722 45.5964 29.0606 45.5964 28.847C45.5964 28.6333 45.5533 28.4218 45.4694 28.2244C45.3856 28.0271 45.2627 27.8478 45.1079 27.697L45.1068 27.698Z" fill="#06C167"/>
</g>
</svg>
