<svg width="72" height="71" viewBox="0 0 72 71" fill="none" xmlns="http://www.w3.org/2000/svg">
<g id="Icon">
<path id="Rectangle 4" d="M61.6066 0.5H10.4293C4.77642 0.5 0.193848 4.97715 0.193848 10.5V60.5C0.193848 66.0229 4.77642 70.5 10.4293 70.5H61.6066C67.2595 70.5 71.842 66.0229 71.842 60.5V10.5C71.842 4.97715 67.2595 0.5 61.6066 0.5Z" fill="#F3FCF7"/>
<path id="Icon awesome-headphones" d="M36.018 24.125C34.2704 24.1241 32.5397 24.4597 30.9249 25.1127C29.3101 25.7657 27.8429 26.7232 26.6071 27.9306C25.3713 29.1379 24.3912 30.5714 23.7229 32.149C23.0545 33.7267 22.711 35.4176 22.7119 37.125V39.563C22.7122 39.8649 22.7985 40.1607 22.9612 40.4174C23.1239 40.674 23.3566 40.8813 23.6331 41.016L24.3803 41.381C24.4315 42.8551 25.0669 44.252 26.1524 45.2771C27.2379 46.3021 28.6885 46.8751 30.1981 46.875H31.4438C31.7747 46.875 32.0921 46.7466 32.326 46.518C32.56 46.2894 32.6915 45.9793 32.6915 45.656V36.719C32.6915 36.3957 32.56 36.0856 32.326 35.857C32.0921 35.6284 31.7747 35.5 31.4438 35.5H30.1971C29.4223 35.4991 28.6552 35.6497 27.941 35.9431C27.2267 36.2364 26.5798 36.6665 26.0384 37.208V37.125C26.0384 34.5391 27.0899 32.0592 28.9614 30.2307C30.8329 28.4022 33.3713 27.375 36.018 27.375C38.6648 27.375 41.2031 28.4022 43.0746 30.2307C44.9462 32.0592 45.9976 34.5391 45.9976 37.125V37.208C45.4563 36.6666 44.8096 36.2366 44.0955 35.9433C43.3815 35.6499 42.6145 35.4992 41.8399 35.5H40.5922C40.4284 35.5 40.2661 35.5315 40.1148 35.5928C39.9634 35.6541 39.8258 35.7438 39.71 35.857C39.5941 35.9702 39.5022 36.1046 39.4395 36.2525C39.3768 36.4004 39.3445 36.5589 39.3445 36.719V45.657C39.3445 45.8171 39.3768 45.9756 39.4395 46.1235C39.5022 46.2714 39.5941 46.4058 39.71 46.519C39.8258 46.6322 39.9634 46.722 40.1148 46.7832C40.2661 46.8445 40.4284 46.876 40.5922 46.876H41.8399C43.3496 46.8761 44.8002 46.3031 45.8857 45.2781C46.9711 44.253 47.6065 42.8561 47.6578 41.382L48.405 41.017C48.6815 40.8823 48.9142 40.675 49.0769 40.4184C49.2396 40.1617 49.3259 39.8659 49.3262 39.564V37.125C49.3271 35.4174 48.9835 33.7263 48.315 32.1486C47.6465 30.5708 46.6663 29.1372 45.4303 27.9299C44.1943 26.7225 42.7268 25.765 41.1118 25.1121C39.4967 24.4593 37.7658 24.1238 36.018 24.125Z" fill="#06C167"/>
</g>
</svg>
